# Blender v2.93.4 OBJ File: 'Key1.blend'
# www.blender.org
mtllib Key1.mtl
o Cube
v 0.363996 0.000000 -1.271480
v 0.555655 0.000000 -3.603974
v 0.555655 0.000000 -4.621109
v 0.721920 -0.000000 -0.948367
v 0.389574 0.000000 -0.951935
v 0.276358 0.000000 -0.746341
v 0.660632 -0.000000 -0.779701
v 0.555733 0.000000 -0.496334
v 0.153125 -0.000000 -0.331121
v 0.418679 0.000000 -0.658320
v 0.555655 0.000000 -1.494902
v 1.191658 0.000000 -1.271480
v 1.000000 0.000000 -3.603974
v 1.000000 0.000000 -4.621109
v 0.833735 -0.000000 -0.948367
v 1.166081 0.000000 -0.951935
v 1.279297 0.000000 -0.746341
v 0.777827 0.000000 -1.307892
v 0.777827 -0.000000 -1.205991
v 0.895023 -0.000000 -0.779701
v 0.999922 0.000000 -0.496334
v 0.777827 -0.000000 -0.648935
v 0.777827 0.000000 -0.239706
v 1.402530 -0.000000 -0.331121
v 1.136976 0.000000 -0.658320
v 1.000000 0.000000 -1.494902
v 0.096164 0.000000 -3.603974
v 0.096164 0.000000 -4.621109
v 0.546295 0.000000 -4.256451
v 1.000000 0.000000 -4.256451
v 0.096164 0.000000 -4.256451
v 0.546295 0.000000 -3.964716
v 1.000000 0.000000 -3.964716
v 0.096164 0.000000 -3.964716
v 0.363996 0.250000 -1.271480
v 0.555655 0.250000 -3.603974
v 0.555655 0.250000 -4.621109
v 0.721920 0.250000 -0.948367
v 0.389574 0.250000 -0.951935
v 0.276358 0.249992 -0.746341
v 0.660632 0.250000 -0.779701
v 0.555733 0.249992 -0.496334
v 0.153125 0.250000 -0.331121
v 0.418679 0.250000 -0.658320
v 0.555655 0.250000 -1.494902
v 1.191658 0.250000 -1.271480
v 1.000000 0.250000 -3.603974
v 1.000000 0.250000 -4.621109
v 0.833735 0.250000 -0.948367
v 1.166081 0.250000 -0.951935
v 1.279297 0.249992 -0.746341
v 0.777827 0.250000 -1.307892
v 0.777827 0.250000 -1.205991
v 0.895023 0.249992 -0.779701
v 0.999922 0.249992 -0.496334
v 0.777827 0.250000 -0.648935
v 0.777827 0.250000 -0.239706
v 1.402530 0.250000 -0.331121
v 1.136976 0.250000 -0.658320
v 1.000000 0.250000 -1.494902
v 0.096164 0.250000 -3.603974
v 0.096164 0.250000 -4.621109
v 0.546295 0.250000 -4.256451
v 1.000000 0.250000 -4.256451
v 0.096164 0.250000 -4.256451
v 0.546295 0.250000 -3.964716
v 1.000000 0.250000 -3.964716
v 0.096164 0.250000 -3.964716
vt 0.087058 0.284852
vt 0.044322 0.233243
vt 0.138365 0.243169
vt 0.152513 0.161564
vt 0.254722 0.117348
vt 0.228140 0.163692
vt 0.232695 0.236521
vt 0.138768 0.219977
vt 0.284414 0.023334
vt 0.222679 0.096751
vt 0.167130 0.123419
vt 0.192127 0.059341
vt 0.140975 0.093192
vt 0.142596 0.000053
vt 0.127064 0.161121
vt 0.051409 0.160616
vt 0.026456 0.113375
vt 0.000053 0.018384
vt 0.091031 0.057581
vt 0.113783 0.122490
vt 0.059197 0.093906
vt 0.180537 0.848771
vt 0.077275 0.846973
vt 0.078704 0.764870
vt 0.179835 0.766630
vt 0.284414 0.768450
vt 0.282985 0.850554
vt 0.175806 0.998127
vt 0.074675 0.996366
vt 0.076119 0.913371
vt 0.179381 0.915169
vt 0.281830 0.916951
vt 0.280385 0.999947
vt 0.188189 0.286612
vt 0.087058 0.284852
vt 0.138365 0.243169
vt 0.044322 0.233243
vt 0.152513 0.161564
vt 0.228140 0.163692
vt 0.254722 0.117348
vt 0.232695 0.236521
vt 0.138768 0.219977
vt 0.284414 0.023334
vt 0.192127 0.059341
vt 0.167130 0.123419
vt 0.222679 0.096751
vt 0.142596 0.000053
vt 0.140975 0.093192
vt 0.127064 0.161121
vt 0.026456 0.113375
vt 0.051409 0.160616
vt 0.000053 0.018384
vt 0.059197 0.093906
vt 0.113783 0.122490
vt 0.091031 0.057581
vt 0.180537 0.848771
vt 0.179835 0.766630
vt 0.078704 0.764870
vt 0.077275 0.846973
vt 0.282985 0.850554
vt 0.284414 0.768450
vt 0.175806 0.998127
vt 0.179381 0.915169
vt 0.076119 0.913371
vt 0.074675 0.996366
vt 0.280385 0.999947
vt 0.281830 0.916951
vt 0.188189 0.286612
vt 0.882394 0.325424
vt 0.882394 0.419700
vt 0.802326 0.419700
vt 0.802326 0.325424
vt 0.921056 0.647304
vt 0.845886 0.647304
vt 0.845886 0.567239
vt 0.921056 0.567236
vt 0.783368 0.244819
vt 0.886037 0.244819
vt 0.886037 0.324887
vt 0.783368 0.324887
vt 0.782832 0.244283
vt 0.644115 0.244283
vt 0.644115 0.164215
vt 0.782832 0.164218
vt 0.779179 0.486632
vt 0.887875 0.486632
vt 0.887875 0.566700
vt 0.779179 0.566698
vt 0.778643 0.566700
vt 0.639264 0.566700
vt 0.639264 0.486635
vt 0.778643 0.486632
vt 0.335208 0.839691
vt 0.335208 0.164215
vt 0.415276 0.164215
vt 0.415276 0.839691
vt 0.729814 0.647841
vt 0.824091 0.647841
vt 0.824091 0.727909
vt 0.729814 0.727909
vt 0.613206 0.647304
vt 0.496417 0.647304
vt 0.496417 0.567236
vt 0.613206 0.567236
vt 0.882930 0.325424
vt 0.958100 0.325424
vt 0.958100 0.405492
vt 0.882930 0.405489
vt 0.496417 0.647841
vt 0.599085 0.647841
vt 0.599085 0.727909
vt 0.496417 0.727909
vt 0.782832 0.324887
vt 0.644115 0.324887
vt 0.644115 0.244822
vt 0.782832 0.244819
vt 0.783368 0.164215
vt 0.892064 0.164215
vt 0.892064 0.244281
vt 0.783368 0.244283
vt 0.721185 0.325424
vt 0.721185 0.464802
vt 0.641117 0.464802
vt 0.641120 0.325424
vt 0.495880 0.164215
vt 0.495880 0.839691
vt 0.415812 0.839691
vt 0.415812 0.164215
vt 0.638728 0.566700
vt 0.496417 0.566700
vt 0.496417 0.486632
vt 0.638728 0.486632
vt 0.721722 0.442213
vt 0.721722 0.325424
vt 0.801790 0.325424
vt 0.801790 0.442213
vt 0.643579 0.244283
vt 0.496417 0.244283
vt 0.496417 0.164215
vt 0.643579 0.164215
vt 0.643579 0.324887
vt 0.496417 0.324887
vt 0.496417 0.244819
vt 0.643579 0.244819
vt 0.729278 0.727909
vt 0.635844 0.727909
vt 0.635844 0.647841
vt 0.729278 0.647841
vt 0.824627 0.647841
vt 0.918062 0.647841
vt 0.918062 0.727909
vt 0.824627 0.727909
vt 0.496417 0.406028
vt 0.640581 0.406028
vt 0.640581 0.486096
vt 0.496417 0.486096
vt 0.845350 0.647304
vt 0.729814 0.647304
vt 0.729814 0.567236
vt 0.845350 0.567236
vt 0.729278 0.647304
vt 0.613743 0.647304
vt 0.613743 0.567236
vt 0.729278 0.567236
vt 0.496417 0.325424
vt 0.640581 0.325424
vt 0.640581 0.405492
vt 0.496417 0.405492
vn 0.0000 -1.0000 0.0000
vn 0.0000 1.0000 0.0000
vn -0.7590 0.0000 -0.6511
vn -0.8760 0.0000 -0.4824
vn -0.9968 0.0000 0.0798
vn 0.9773 0.0000 0.2121
vn -0.9587 0.0000 -0.2845
vn -0.4484 0.0000 -0.8938
vn -0.7562 0.0000 0.6544
vn 0.7447 0.0000 -0.6674
vn 0.3796 0.0000 0.9251
vn 0.6912 0.0000 0.7227
vn -1.0000 0.0000 0.0000
vn 0.7590 0.0000 -0.6511
vn 1.0000 0.0000 0.0000
vn 0.8760 0.0000 -0.4824
vn 0.9968 0.0000 0.0798
vn -0.9773 0.0000 0.2121
vn 0.9587 0.0000 -0.2845
vn 0.4484 0.0000 -0.8938
vn 0.7562 0.0000 0.6544
vn -0.7447 0.0000 -0.6674
vn -0.3796 0.0000 0.9251
vn -0.6912 0.0000 0.7227
vn 0.0000 0.0000 -1.0000
vn 0.0000 0.0000 1.0000
usemtl Material
s off
f 26/1/1 12/2/1 18/3/1
f 4/4/1 6/5/1 5/6/1
f 1/7/1 18/3/1 19/8/1 4/4/1
f 9/9/1 10/10/1 7/11/1 8/12/1
f 8/12/1 7/11/1 22/13/1 23/14/1
f 6/5/1 4/4/1 10/10/1 9/9/1
f 1/7/1 4/4/1 5/6/1
f 15/15/1 16/16/1 17/17/1
f 12/2/1 15/15/1 19/8/1 18/3/1
f 24/18/1 21/19/1 20/20/1 25/21/1
f 21/19/1 23/14/1 22/13/1 20/20/1
f 17/17/1 24/18/1 25/21/1 15/15/1
f 12/2/1 16/16/1 15/15/1
f 32/22/1 33/23/1 13/24/1 2/25/1
f 32/22/1 2/25/1 27/26/1 34/27/1
f 3/28/1 14/29/1 30/30/1 29/31/1
f 3/28/1 29/31/1 31/32/1 28/33/1
f 33/23/1 32/22/1 29/31/1 30/30/1
f 2/25/1 13/24/1 26/1/1 11/34/1
f 1/7/1 11/34/1 18/3/1
f 11/34/1 26/1/1 18/3/1
f 60/35/2 52/36/2 46/37/2
f 38/38/2 39/39/2 40/40/2
f 35/41/2 38/38/2 53/42/2 52/36/2
f 43/43/2 42/44/2 41/45/2 44/46/2
f 42/44/2 57/47/2 56/48/2 41/45/2
f 40/40/2 43/43/2 44/46/2 38/38/2
f 35/41/2 39/39/2 38/38/2
f 49/49/2 51/50/2 50/51/2
f 46/37/2 52/36/2 53/42/2 49/49/2
f 58/52/2 59/53/2 54/54/2 55/55/2
f 55/55/2 54/54/2 56/48/2 57/47/2
f 51/50/2 49/49/2 59/53/2 58/52/2
f 46/37/2 49/49/2 50/51/2
f 66/56/2 36/57/2 47/58/2 67/59/2
f 66/56/2 68/60/2 61/61/2 36/57/2
f 37/62/2 63/63/2 64/64/2 48/65/2
f 37/62/2 62/66/2 65/67/2 63/63/2
f 67/59/2 64/64/2 63/63/2 66/56/2
f 36/57/2 45/68/2 60/35/2 47/58/2
f 35/41/2 52/36/2 45/68/2
f 45/68/2 52/36/2 60/35/2
f 11/69/3 1/70/3 35/71/3 45/72/3
f 5/73/4 6/74/4 40/75/4 39/76/4
f 1/77/5 5/78/5 39/79/5 35/80/5
f 4/4/6 19/8/6 53/42/6 38/38/6
f 6/81/7 9/82/7 43/83/7 40/84/7
f 7/11/8 10/10/8 44/46/8 41/45/8
f 8/85/9 23/86/9 57/87/9 42/88/9
f 22/13/10 7/11/10 41/45/10 56/48/10
f 9/89/11 8/90/11 42/91/11 43/92/11
f 10/10/12 4/4/12 38/38/12 44/46/12
f 2/93/13 11/94/13 45/95/13 36/96/13
f 12/97/14 26/98/14 60/99/14 46/100/14
f 30/101/15 14/102/15 48/103/15 64/104/15
f 17/105/16 16/106/16 50/107/16 51/108/16
f 16/109/17 12/110/17 46/111/17 50/112/17
f 19/8/18 15/15/18 49/49/18 53/42/18
f 24/113/19 17/114/19 51/115/19 58/116/19
f 25/21/20 20/20/20 54/54/20 59/53/20
f 23/117/21 21/118/21 55/119/21 57/120/21
f 20/20/22 22/13/22 56/48/22 54/54/22
f 21/121/23 24/122/23 58/123/23 55/124/23
f 15/15/24 25/21/24 59/53/24 49/49/24
f 26/125/15 13/126/15 47/127/15 60/128/15
f 14/129/25 3/130/25 37/131/25 48/132/25
f 28/133/13 31/134/13 65/135/13 62/136/13
f 3/137/25 28/138/25 62/139/25 37/140/25
f 27/141/26 2/142/26 36/143/26 61/144/26
f 29/145/13 32/146/13 66/147/13 63/148/13
f 33/149/15 30/150/15 64/151/15 67/152/15
f 31/153/26 29/154/26 63/155/26 65/156/26
f 13/157/15 33/158/15 67/159/15 47/160/15
f 34/161/13 27/162/13 61/163/13 68/164/13
f 32/165/25 34/166/25 68/167/25 66/168/25
